<svg width="15" height="14" viewBox="0 0 15 14" fill="none" xmlns="http://www.w3.org/2000/svg">
<path fill-rule="evenodd" clip-rule="evenodd" d="M0 6.53219C0 6.28474 0.0982978 6.04743 0.273269 5.87246C0.44824 5.69749 0.685551 5.59919 0.932997 5.59919H11.7427L7.73641 1.59477C7.56122 1.41958 7.4628 1.18197 7.4628 0.934207C7.4628 0.686448 7.56122 0.448836 7.73641 0.273644C7.9116 0.0984525 8.14921 3.05176e-05 8.39697 3.05176e-05C8.64473 3.05176e-05 8.88234 0.0984525 9.05754 0.273644L14.6555 5.87163C14.7424 5.95829 14.8113 6.06125 14.8584 6.1746C14.9054 6.28795 14.9296 6.40947 14.9296 6.53219C14.9296 6.65491 14.9054 6.77643 14.8584 6.88978C14.8113 7.00313 14.7424 7.10608 14.6555 7.19275L9.05754 12.7907C8.88234 12.9659 8.64473 13.0643 8.39697 13.0643C8.14921 13.0643 7.9116 12.9659 7.73641 12.7907C7.56122 12.6155 7.4628 12.3779 7.4628 12.1302C7.4628 11.8824 7.56122 11.6448 7.73641 11.4696L11.7427 7.46519H0.932997C0.685551 7.46519 0.44824 7.36689 0.273269 7.19192C0.0982978 7.01695 0 6.77964 0 6.53219Z" fill="white"/>
</svg>
